The Vineyard 1989  DVDRip Xvid fasamoo LKRG

RIPPER                           : fasamoo
Format                           : AVI
Format/Info                      : Audio Video Interleave
File size                        : 700 MiB
Duration                         : 1h 33mn
Overall bit rate                 : 1 048 Kbps
Writing application              : VirtualDubMod 1.5.4.1 (build 2178/release)
Writing library                  : VirtualDubMod build 2178/release
Language                         : English
Genre                            : Horror      

Video
ID                               : 0
Format                           : MPEG-4 Visual
Format profile                   : Advanced Simple@L5
Format settings, BVOP            : Yes
Format settings, QPel            : No
Format settings, GMC             : No warppoints
Format settings, Matrix          : Custom
Codec ID                         : XVID
Codec ID/Hint                    : XviD
Duration                         : 1h 33mn
Bit rate                         : 933 Kbps
Width                            : 704 pixels
Height                           : 368 pixels
Display aspect ratio             : 1.913
Frame rate                       : 23.976 fps
Color space                      : YUV
Chroma subsampling               : 4:2:0
Bit depth                        : 8 bits
Scan type                        : Progressive
Bits/(Pixel*Frame)               : 0.150
Stream size                      : 623 MiB (89%)
Writing library                  : XviD 1.2.1 (UTC 2008-12-04)

Audio
ID                               : 1
Format                           : MPEG Audio
Format version                   : Version 1
Format profile                   : Layer 3
Mode                             : Joint stereo
Mode extension                   : MS Stereo
Codec ID                         : 55
Codec ID/Hint                    : MP3
Duration                         : 1h 33mn
Bit rate mode                    : Variable
Bit rate                         : 103 Kbps
Nominal bit rate                 : 128 Kbps
Channel(s)                       : 2 channels
Sampling rate                    : 48.0 KHz
Stream size                      : 68.6 MiB (10%)
Alignment                        : Aligned on interleaves
Interleave, duration             : 24 ms (0.58 video frame)
Interleave, preload duration     : 572 ms
Writing library                  : LAME3.98r
Encoding settings                : -m j -V 4 -q 2 -lowpass 17 --abr 128

                                 PLOT

Dr. Elson Po is one of the world's most famous wine grower. He has a magic potion which has kept him handsome and alive during the centuries. However, the magic which rejuvenates him seem to be less and less effective. As a side project he make movies and invites a group of young, aspiring actors to his island for a party, believing that the young, handsome actress Jezebel can be his new source of life. 


                                 IMBD
                     
                 http://www.imdb.com/title/tt0098600/
 
http://leetleech.org/images/75888432108992070862.png 
http://leetleech.org/images/12107986311690996563.png 
http://leetleech.org/images/55329138572319793747.png 
http://leetleech.org/images/63274217545561630000.png 
http://leetleech.org/images/05585922299482091113.png